<svg width="320" height="320" viewBox="0 0 320 320" fill="none" xmlns="http://www.w3.org/2000/svg">
<path d="M90.3453 68H48.0553C43.6065 68 40 71.5817 40 76V240C40 244.418 43.6065 248 48.0553 248H90.3453C94.7941 248 98.4006 244.418 98.4006 240V76C98.4006 71.5817 94.7941 68 90.3453 68Z" fill="#1BFFB7"/>
<path d="M155.794 68H113.504C109.055 68 105.449 71.5817 105.449 76V240C105.449 244.418 109.055 248 113.504 248H155.794C160.243 248 163.849 244.418 163.849 240V76C163.849 71.5817 160.243 68 155.794 68Z" fill="#1BFFB7"/>
<path d="M199.056 80.7743L167.711 95.7218C163.701 97.6342 162.011 102.413 163.936 106.396L230.645 244.372C232.571 248.355 237.383 250.034 241.393 248.121L272.738 233.174C276.749 231.261 278.439 226.482 276.513 222.499L209.804 84.5232C207.879 80.5402 203.067 78.8618 199.056 80.7743Z" fill="#1BFFB7"/>
</svg>
