<?xml version="1.0" encoding="UTF-8"?><svg id="Layer_2" xmlns="http://www.w3.org/2000/svg" viewBox="0 0 681.4799805 227.2851562"><g id="Layer_1-2"><g><g><path d="M294.9458008,28.9794922c2.6679688-4.9985352,6.4545898-8.8925781,11.3623047-11.684082,4.90625-2.7905273,10.5483398-4.1860352,16.9277344-4.1860352,8.0961914,0,14.9042969,2.1621094,20.4238281,6.4858398,5.5205078,4.3242188,9.0761719,10.1977539,10.671875,17.6181641h-19.4116211c-1.1655273-2.4526367-2.7758789-4.3242188-4.8300781-5.6123047-2.0556641-1.2875977-4.4316406-1.9316406-7.1298828-1.9316406-4.1713867,0-7.4980469,1.487793-9.9819336,4.4619141-2.4838867,2.9755859-3.7260742,6.9458008-3.7260742,11.9140625,0,5.0297852,1.2421875,9.0317383,3.7260742,12.0058594,2.4838867,2.9755859,5.8105469,4.4619141,9.9819336,4.4619141,2.6982422,0,5.0742188-.644043,7.1298828-1.9321289,2.0541992-1.2875977,3.6645508-3.1582031,4.8300781-5.6118164h19.4116211c-1.5957031,7.421875-5.1513672,13.2939453-10.671875,17.6181641-5.5195312,4.3237305-12.3276367,6.4858398-20.4238281,6.4858398-6.3793945,0-12.0214844-1.3945312-16.9277344-4.1860352-4.9077148-2.7900391-8.6943359-6.684082-11.3623047-11.684082-2.6679688-4.9980469-4.0019531-10.7177734-4.0019531-17.1577148,0-6.378418,1.3339844-12.0664062,4.0019531-17.065918Z" style="fill:#fff;"/><path d="M377.2397461,74.9794922c-5.0917969-2.8520508-9.1240234-6.8081055-12.0986328-11.8681641-2.9755859-5.0600586-4.4619141-10.7783203-4.4619141-17.1582031,0-6.3779297,1.4863281-12.0976562,4.4619141-17.1577148,2.9746094-5.0600586,7.0068359-9.0004883,12.0986328-11.8222656,5.0898438-2.8203125,10.671875-4.2319336,16.7441406-4.2319336,6.1318359,0,11.7294922,1.4116211,16.7890625,4.2319336,5.0605469,2.8217773,9.0625,6.762207,12.0058594,11.8222656,2.9453125,5.0600586,4.4160156,10.7797852,4.4160156,17.1577148,0,6.3798828-1.4707031,12.0981445-4.4160156,17.1582031-2.9433594,5.0600586-6.9609375,9.0161133-12.0507812,11.8681641-5.0917969,2.8515625-10.6728516,4.277832-16.7441406,4.277832-6.0722656,0-11.6542969-1.4262695-16.7441406-4.277832Zm27.6455078-16.9741211c2.6679688-3.0043945,4.0019531-7.0224609,4.0019531-12.0522461,0-5.1518555-1.3339844-9.2143555-4.0019531-12.1899414-2.6679688-2.9741211-6.3017578-4.4619141-10.9013672-4.4619141-4.6621094,0-8.3125,1.487793-10.9492188,4.4619141-2.6367188,2.9755859-3.9550781,7.0380859-3.9550781,12.1899414,0,5.0917969,1.3183594,9.1240234,3.9550781,12.0981445,2.6367188,2.9755859,6.2871094,4.4619141,10.9492188,4.4619141,4.5996094,0,8.2333984-1.5019531,10.9013672-4.5078125Z" style="fill:#fff;"/><path d="M452.9545898,13.753418V51.3813477c0,3.4960938,.8125,6.1958008,2.4375,8.0957031,1.625,1.9018555,4.09375,2.8520508,7.40625,2.8520508s5.8105469-.9658203,7.4980469-2.8979492c1.6855469-1.9316406,2.53125-4.6142578,2.53125-8.0498047V13.753418h18.03125V51.3813477c0,5.949707-1.2578125,11.0253906-3.7714844,15.2260742-2.515625,4.2016602-5.9355469,7.3598633-10.2578125,9.4760742-4.3242188,2.1157227-9.125,3.1738281-14.3984375,3.1738281-5.2753906,0-9.9824219-1.0581055-14.1230469-3.1738281-4.1386719-2.1162109-7.390625-5.2587891-9.7519531-9.4301758-2.3613281-4.1704102-3.5410156-9.2602539-3.5410156-15.2719727V13.753418h17.9394531Z" style="fill:#fff;"/><path d="M533.6381836,78.6132812l-12.8808594-23.9199219h-1.9316406v23.9199219h-18.03125V13.753418h28.4277344c5.2109375,0,9.6269531,.9052734,13.2480469,2.7138672,3.6171875,1.8095703,6.3476562,4.2939453,8.1875,7.4521484,1.8398438,3.159668,2.7597656,6.7016602,2.7597656,10.6259766,0,4.4160156-1.2109375,8.2958984-3.6347656,11.6376953-2.421875,3.34375-5.9648438,5.7202148-10.625,7.1303711l14.6269531,25.2998047h-20.1464844Zm-14.8125-36.2480469h8.9238281c2.453125,0,4.2929688-.5820312,5.5195312-1.7480469,1.2265625-1.1640625,1.8398438-2.8520508,1.8398438-5.0600586,0-2.0839844-.6289062-3.7260742-1.8847656-4.921875-1.2578125-1.1958008-3.0820312-1.7939453-5.4746094-1.7939453h-8.9238281v13.5239258Z" style="fill:#fff;"/><path d="M567.4936523,73.8754883c-4.8457031-3.5883789-7.453125-8.7246094-7.8203125-15.4101562h19.2285156c.1835938,2.2695312,.8574219,3.9257812,2.0234375,4.9677734,1.1640625,1.0439453,2.6679688,1.5639648,4.5078125,1.5639648,1.65625,0,3.0195312-.4135742,4.09375-1.2416992,1.0722656-.828125,1.609375-1.9780273,1.609375-3.4501953,0-1.9003906-.8886719-3.3720703-2.6679688-4.4160156-1.7792969-1.0419922-4.6601562-2.2080078-8.6464844-3.4960938-4.2324219-1.4101562-7.6523438-2.7739258-10.2578125-4.09375-2.609375-1.3183594-4.8769531-3.25-6.8085938-5.7958984-1.9316406-2.5444336-2.8984375-5.8725586-2.8984375-9.9819336,0-4.1704102,1.0429688-7.7426758,3.1289062-10.7182617,2.0839844-2.9741211,4.9667969-5.2280273,8.6464844-6.7617188,3.6816406-1.5327148,7.8515625-2.300293,12.5136719-2.300293,7.5429688,0,13.5683594,1.7636719,18.0761719,5.2900391,4.5097656,3.527832,6.9160156,8.4799805,7.2226562,14.8579102h-19.5957031c-.0625-1.9619141-.6601562-3.434082-1.7949219-4.4160156-1.1347656-.9804688-2.5917969-1.4716797-4.3691406-1.4716797-1.3496094,0-2.453125,.3994141-3.3125,1.1958008-.859375,.7978516-1.2871094,1.9321289-1.2871094,3.4038086,0,1.2280273,.4746094,2.2856445,1.4257812,3.1743164,.9492188,.8896484,2.1308594,1.6557617,3.5410156,2.2998047s3.4960938,1.4575195,6.2578125,2.4379883c4.1074219,1.4116211,7.4960938,2.8061523,10.1660156,4.1860352,2.6679688,1.3798828,4.9667969,3.3120117,6.8984375,5.7958984,1.9316406,2.484375,2.8984375,5.6279297,2.8984375,9.4301758,0,3.8637695-.9667969,7.3295898-2.8984375,10.3959961-1.9316406,3.0673828-4.7226562,5.4897461-8.3710938,7.2680664-3.6503906,1.7797852-7.9589844,2.6679688-12.9257812,2.6679688-7.5449219,0-13.7402344-1.7939453-18.5839844-5.3818359Z" style="fill:#fff;"/><path d="M636.675293,28.1972656v10.5800781h20.7011719v13.7080078h-20.7011719v11.684082h23.4609375v14.4438477h-41.4921875V13.753418h41.4921875v14.4438477h-23.4609375Z" style="fill:#fff;"/><path d="M337.1279297,105.7529297v14.3525391h-25.9438477v11.4072266h19.1357422v13.7080078h-19.1357422v25.3925781h-18.0322266V105.7529297h43.9760742Z" style="fill:#1b9aff;"/><path d="M362.7944336,156.8134766h20.1484375v13.7998047h-38.1796875V105.7529297h18.03125v51.0605469Z" style="fill:#1b9aff;"/><path d="M404.2866211,166.9794922c-5.0917969-2.8525391-9.1230469-6.8085938-12.0976562-11.8681641-2.9765625-5.0605469-4.4628906-10.7783203-4.4628906-17.1582031,0-6.3779297,1.4863281-12.0976562,4.4628906-17.1582031,2.9746094-5.0595703,7.0058594-9,12.0976562-11.8222656,5.0898438-2.8203125,10.671875-4.2314453,16.7441406-4.2314453,6.1328125,0,11.7285156,1.4111328,16.7890625,4.2314453,5.0605469,2.8222656,9.0625,6.7626953,12.0058594,11.8222656,2.9453125,5.0605469,4.4160156,10.7802734,4.4160156,17.1582031,0,6.3798828-1.4707031,12.0976562-4.4160156,17.1582031-2.9433594,5.0595703-6.9609375,9.015625-12.0507812,11.8681641-5.0917969,2.8515625-10.671875,4.2773438-16.7441406,4.2773438s-11.6542969-1.4257812-16.7441406-4.2773438Zm27.6464844-16.9746094c2.6679688-3.0039062,4.0019531-7.0224609,4.0019531-12.0517578,0-5.1523438-1.3339844-9.2148438-4.0019531-12.1904297-2.6679688-2.9736328-6.3027344-4.4619141-10.9023438-4.4619141-4.6621094,0-8.3115234,1.4882812-10.9482422,4.4619141-2.6376953,2.9755859-3.9560547,7.0380859-3.9560547,12.1904297,0,5.0917969,1.3183594,9.1240234,3.9560547,12.0976562,2.6367188,2.9755859,6.2861328,4.4619141,10.9482422,4.4619141,4.5996094,0,8.234375-1.5019531,10.9023438-4.5078125Z" style="fill:#1b9aff;"/><path d="M553.6928711,105.7529297l-15.9160156,64.8603516h-22.171875l-8.9238281-39.7441406-9.1074219,39.7441406h-22.171875l-15.7324219-64.8603516h19.5039062l7.5449219,44.34375,10.2109375-44.34375h19.78125l9.9355469,43.9765625,7.5429688-43.9765625h19.5039062Z" style="fill:#1b9aff;"/></g><g><rect y="1.5430746" width="58" height="180" rx="8" ry="8" style="fill:#1bffb7;"/><rect x="65" y="1.5430746" width="58" height="180" rx="8" ry="8" style="fill:#1bffb7;"/><rect x="153.7224141" y="13.462327" width="50.5326268" height="169.0575809" rx="8" ry="8" transform="translate(-24.7789899 87.1310526) rotate(-25.6486551)" style="fill:#1bffb7;"/></g></g></g></svg>